<?xml version="1.0" encoding="iso-8859-1"?>
<!-- Generator: Adobe Illustrator 19.0.0, SVG Export Plug-In . SVG Version: 6.00 Build 0)  -->
<svg version="1.1" id="Layer_1" xmlns="http://www.w3.org/2000/svg" xmlns:xlink="http://www.w3.org/1999/xlink" x="0px" y="0px"
	 viewBox="0 0 511.999 511.999" style="enable-background:new 0 0 511.999 511.999;" xml:space="preserve">
<g>
	<g>
		<path d="M463.206,0H48.793c-11.79,0-21.382,9.592-21.382,21.382c0,4.214,3.416,7.629,7.629,7.629s7.629-3.415,7.629-7.629
			c0-3.377,2.747-6.124,6.124-6.124h414.414c3.377,0,6.124,2.747,6.124,6.124v469.235c0,3.377-2.747,6.124-6.124,6.124h-24.371
			c-4.214,0-7.629,3.415-7.629,7.629s3.415,7.629,7.629,7.629h24.371c11.79,0,21.382-9.592,21.382-21.382V21.382
			C484.589,9.592,474.995,0,463.206,0z"/>
	</g>
</g>
<g>
	<g>
		<path d="M394.469,496.742H48.793c-3.377,0-6.124-2.747-6.124-6.124V57.064c0-4.214-3.416-7.629-7.629-7.629
			c-4.213,0-7.629,3.415-7.629,7.629v433.553c0,11.79,9.592,21.382,21.382,21.382h345.677c4.214,0,7.629-3.415,7.629-7.629
			C402.098,500.156,398.684,496.742,394.469,496.742z"/>
	</g>
</g>
<g>
	<g>
		<path d="M162.101,86.304H99.985c-4.213,0-7.629,3.415-7.629,7.629v62.114c0,4.214,3.416,7.629,7.629,7.629h62.115
			c4.213,0,7.629-3.415,7.629-7.629V93.933C169.729,89.718,166.314,86.304,162.101,86.304z M154.472,148.418h-46.857v-46.856h46.857
			V148.418z"/>
	</g>
</g>
<g>
	<g>
		<path d="M162.101,208.918H99.985c-4.213,0-7.629,3.415-7.629,7.629v62.115c0,4.214,3.416,7.629,7.629,7.629h62.115
			c4.213,0,7.629-3.415,7.629-7.629v-62.115C169.729,212.332,166.314,208.918,162.101,208.918z M154.472,271.033h-46.857v-46.857
			h46.857V271.033z"/>
	</g>
</g>
<g>
	<g>
		<path d="M162.101,331.533H99.985c-4.213,0-7.629,3.415-7.629,7.629v62.115c0,4.214,3.416,7.629,7.629,7.629h62.115
			c4.213,0,7.629-3.415,7.629-7.629v-62.115C169.729,334.947,166.314,331.533,162.101,331.533z M154.472,393.648h-46.857v-46.857
			h46.857V393.648z"/>
	</g>
</g>
<g>
	<g>
		<path d="M418.475,86.304H208.389c-4.213,0-7.629,3.415-7.629,7.629v62.114c0,4.214,3.416,7.629,7.629,7.629h210.085
			c4.214,0,7.629-3.415,7.629-7.629V93.933C426.104,89.718,422.689,86.304,418.475,86.304z M216.018,148.418v-46.856h194.828v46.856
			H216.018z"/>
	</g>
</g>
<g>
	<g>
		<path d="M418.475,208.918H208.389c-4.213,0-7.629,3.415-7.629,7.629v62.115c0,4.214,3.416,7.629,7.629,7.629h210.085
			c4.214,0,7.629-3.415,7.629-7.629v-62.115C426.104,212.332,422.689,208.918,418.475,208.918z M216.018,271.033v-46.857h194.828
			v46.857H216.018z"/>
	</g>
</g>
<g>
	<g>
		<path d="M418.475,331.533H208.389c-4.213,0-7.629,3.415-7.629,7.629v62.115c0,4.214,3.416,7.629,7.629,7.629h210.085
			c4.214,0,7.629-3.415,7.629-7.629v-62.115C426.104,334.948,422.689,331.533,418.475,331.533z M216.018,393.648v-46.857h194.828
			v46.857H216.018z"/>
	</g>
</g>
<g>
</g>
<g>
</g>
<g>
</g>
<g>
</g>
<g>
</g>
<g>
</g>
<g>
</g>
<g>
</g>
<g>
</g>
<g>
</g>
<g>
</g>
<g>
</g>
<g>
</g>
<g>
</g>
<g>
</g>
</svg>
