<?xml version="1.0" encoding="iso-8859-1"?>
<!-- Generator: Adobe Illustrator 17.1.0, SVG Export Plug-In . SVG Version: 6.00 Build 0)  -->
<!DOCTYPE svg PUBLIC "-//W3C//DTD SVG 1.1//EN" "http://www.w3.org/Graphics/SVG/1.1/DTD/svg11.dtd">
<svg version="1.1" id="Capa_1" xmlns="http://www.w3.org/2000/svg" xmlns:xlink="http://www.w3.org/1999/xlink" x="0px" y="0px"
	 viewBox="0 0 465 465" style="enable-background:new 0 0 465 465;" xml:space="preserve">
<g>
	<path d="M313.375,305.61c-4.142,0-7.5,3.358-7.5,7.5V450H85.002v-62.5c0-4.142-3.358-7.5-7.5-7.5h-62.5V15h290.873v136.89
		c0,4.142,3.358,7.5,7.5,7.5s7.5-3.358,7.5-7.5V7.5c0-4.142-3.358-7.5-7.5-7.5H7.502c-4.142,0-7.5,3.358-7.5,7.5v380
		c0,0.251,0.013,0.501,0.038,0.749c0.018,0.182,0.049,0.359,0.08,0.537c0.011,0.063,0.017,0.128,0.029,0.191
		c0.042,0.21,0.096,0.416,0.155,0.619c0.009,0.03,0.014,0.061,0.023,0.091c0.063,0.207,0.138,0.409,0.218,0.608
		c0.011,0.027,0.019,0.055,0.03,0.082c0.078,0.188,0.168,0.372,0.261,0.552c0.019,0.037,0.034,0.075,0.054,0.112
		c0.089,0.167,0.189,0.327,0.291,0.485c0.03,0.048,0.057,0.098,0.088,0.145c0.101,0.151,0.213,0.295,0.324,0.438
		c0.039,0.05,0.073,0.103,0.113,0.151c0.156,0.189,0.32,0.372,0.493,0.545l69.997,69.997c0.173,0.173,0.355,0.338,0.545,0.494
		c0.049,0.04,0.102,0.074,0.151,0.113c0.143,0.112,0.287,0.223,0.438,0.324c0.047,0.032,0.097,0.058,0.145,0.088
		c0.159,0.101,0.319,0.201,0.486,0.291c0.036,0.02,0.075,0.035,0.112,0.054c0.181,0.093,0.364,0.183,0.552,0.261
		c0.027,0.011,0.055,0.019,0.081,0.029c0.199,0.08,0.401,0.155,0.608,0.218c0.03,0.009,0.061,0.015,0.091,0.023
		c0.203,0.06,0.409,0.114,0.619,0.156c0.063,0.013,0.128,0.018,0.191,0.029c0.178,0.031,0.355,0.062,0.537,0.08
		c0.248,0.025,0.498,0.038,0.749,0.038h235.873c4.142,0,7.5-3.358,7.5-7.5V313.11C320.875,308.968,317.517,305.61,313.375,305.61z
		 M70.002,439.394L25.608,395h44.394V439.394z"/>
	<path d="M263.375,405c4.142,0,7.5-3.358,7.5-7.5s-3.358-7.5-7.5-7.5h-64.401c-4.142,0-7.5,3.358-7.5,7.5s3.358,7.5,7.5,7.5H263.375
		z"/>
	<path d="M263.375,70H57.502c-4.142,0-7.5,3.358-7.5,7.5s3.358,7.5,7.5,7.5h205.873c4.142,0,7.5-3.358,7.5-7.5
		S267.517,70,263.375,70z"/>
	<path d="M263.375,110H57.502c-4.142,0-7.5,3.358-7.5,7.5s3.358,7.5,7.5,7.5h205.873c4.142,0,7.5-3.358,7.5-7.5
		S267.517,110,263.375,110z"/>
	<path d="M263.375,150H57.502c-4.142,0-7.5,3.358-7.5,7.5s3.358,7.5,7.5,7.5h205.873c4.142,0,7.5-3.358,7.5-7.5
		S267.517,150,263.375,150z"/>
	<path d="M270.875,197.5c0-4.142-3.358-7.5-7.5-7.5H57.502c-4.142,0-7.5,3.358-7.5,7.5s3.358,7.5,7.5,7.5h205.873
		C267.517,205,270.875,201.642,270.875,197.5z"/>
	<path d="M235.264,237.5c0-4.142-3.358-7.5-7.5-7.5H57.502c-4.142,0-7.5,3.358-7.5,7.5s3.358,7.5,7.5,7.5h170.263
		C231.907,245,235.264,241.642,235.264,237.5z"/>
	<path d="M57.502,270c-4.142,0-7.5,3.358-7.5,7.5s3.358,7.5,7.5,7.5h102.937c4.142,0,7.5-3.358,7.5-7.5s-3.358-7.5-7.5-7.5H57.502z"
		/>
	<path d="M454.909,90.966c-6.508-6.508-15.171-10.093-24.395-10.093s-17.887,3.584-24.395,10.092L382.785,114.3l-0.001,0l-0.001,0
		l-21.211,21.211c0,0-0.001,0-0.001,0c-0.001,0.001-0.001,0.001-0.001,0.001L209.957,287.128c-0.211,0.21-0.402,0.433-0.582,0.661
		c-0.046,0.059-0.088,0.121-0.133,0.181c-0.135,0.182-0.262,0.368-0.378,0.558c-0.021,0.034-0.046,0.064-0.066,0.098l-44.17,75.018
		c-1.865,2.239-2.879,5.033-2.879,7.983c0,3.339,1.3,6.478,3.661,8.839s5.5,3.661,8.839,3.661c2.95,0,5.744-1.015,7.983-2.879
		l75.018-44.17c0.035-0.021,0.065-0.046,0.1-0.067c0.19-0.116,0.374-0.242,0.555-0.376c0.061-0.045,0.123-0.088,0.183-0.135
		c0.228-0.18,0.45-0.371,0.66-0.582L410.36,184.305c0,0,0.001,0,0.001-0.001s0.001-0.001,0.001-0.001l21.212-21.212l0.001,0l0.001,0
		l23.334-23.334C468.361,126.305,468.361,104.417,454.909,90.966z M405.058,168.394l-27.577-27.578l10.607-10.606l27.578,27.577
		L405.058,168.394z M253.444,320.008l-27.577-27.577l141.008-141.008L394.452,179L253.444,320.008z M210.136,347.411l-11.671-11.671
		l18.343-31.154l24.482,24.482L210.136,347.411z M181.754,364.122l8.85-15.031l6.181,6.181L181.754,364.122z M444.303,129.149
		l-18.031,18.031l-27.578-27.577l18.032-18.032c3.675-3.675,8.572-5.699,13.789-5.699s10.113,2.024,13.789,5.699
		c3.675,3.675,5.699,8.572,5.699,13.789S447.978,125.475,444.303,129.149z"/>
</g>
<g>
</g>
<g>
</g>
<g>
</g>
<g>
</g>
<g>
</g>
<g>
</g>
<g>
</g>
<g>
</g>
<g>
</g>
<g>
</g>
<g>
</g>
<g>
</g>
<g>
</g>
<g>
</g>
<g>
</g>
</svg>
