<?xml version="1.0" encoding="iso-8859-1"?>
<!-- Generator: Adobe Illustrator 19.0.0, SVG Export Plug-In . SVG Version: 6.00 Build 0)  -->
<svg version="1.1" id="Capa_1" xmlns="http://www.w3.org/2000/svg" xmlns:xlink="http://www.w3.org/1999/xlink" x="0px" y="0px"
	 viewBox="0 0 508 508" style="enable-background:new 0 0 508 508;" xml:space="preserve">
<g>
	<g>
		<path d="M379.05,233.2V116.6c0-23-18.7-41.6-41.6-41.6h-36c-6.9-22.1-26.3-38.7-50-41.3c-7.1-19.9-26-33.7-47.5-33.7
			s-40.4,13.8-47.2,33.7c-23.7,2.6-43.1,19.2-50,41.3h-36c-23,0-41.6,18.7-41.6,41.6v349.8c0,23,18.7,41.6,41.6,41.6h266.5
			c46.7-3.7,41.6-50,41.6-50h-16.7c0.1,0,5.1,30.1-24.9,33.3H70.75c-13.8,0-25-11.2-25-25V116.6c0-13.8,11.2-25,25-25h33.4
			c0,0.3,0,0.6,0,0.8v24.1h199.8V92.4c0-0.3,0-0.6,0-0.8h33.4c13.8,0,25,11.2,25,25v116.6H379.05z M287.25,100
			c0,0.3-166.5,0.5-166.6,0c-2-53.9,49.3-50,49.3-50s4.1-33.3,34-33.3c31.8,0,34,33.3,34,33.3S288.05,44.6,287.25,100z"/>
	</g>
</g>
<g>
	<g>
		<rect x="120.75" y="199.9" width="166.6" height="16.7"/>
	</g>
</g>
<g>
	<g>
		<rect x="120.75" y="258.2" width="158.2" height="16.7"/>
	</g>
</g>
<g>
	<g>
		<rect x="120.75" y="316.5" width="124.9" height="16.7"/>
	</g>
</g>
<g>
	<g>
		<rect x="120.75" y="374.8" width="16.7" height="16.7"/>
	</g>
</g>
<g>
	<g>
		<rect x="154.05" y="374.8" width="16.7" height="16.7"/>
	</g>
</g>
<g>
	<g>
		<rect x="187.35" y="374.8" width="16.7" height="16.7"/>
	</g>
</g>
<g>
	<g>
		<path d="M374.75,241.5c-13.2,0-25.8,2.6-37.5,7.1v-107H70.75v324.8h266.5v-23.7c11.6,4.5,24.3,7.1,37.5,7.1
			c57.4,0,104.1-46.7,104.1-104.1C478.85,288.3,432.15,241.5,374.75,241.5z M320.55,449.7H87.35V158.2h233.2v98.6
			c-29.9,18.3-50,51.2-50,88.7s20.1,70.4,50,88.7V449.7z M374.75,433c-48.2,0-87.4-39.2-87.4-87.4c0-48.2,39.2-87.4,87.4-87.4
			c48.2,0,87.4,39.2,87.4,87.4C462.15,393.8,422.95,433,374.75,433z"/>
	</g>
</g>
<g>
	<g>
		<polygon points="414.65,310.6 362.25,363 343.15,343.9 331.35,355.7 362.25,386.5 426.35,322.3 		"/>
	</g>
</g>
<g>
</g>
<g>
</g>
<g>
</g>
<g>
</g>
<g>
</g>
<g>
</g>
<g>
</g>
<g>
</g>
<g>
</g>
<g>
</g>
<g>
</g>
<g>
</g>
<g>
</g>
<g>
</g>
<g>
</g>
</svg>
