<svg id="Layer_3" enable-background="new 0 0 64 64" height="512" viewBox="0 0 64 64" width="512" xmlns="http://www.w3.org/2000/svg"><g><path d="m51.982 2.35h1.535v17.798h-1.535z" transform="matrix(.707 -.707 .707 .707 7.496 40.594)"/><path d="m46.999 19c0-.377-.146-.733-.415-1l-.585-.586c-.263-.263-.628-.414-1-.414-.378 0-.733.147-1 .415l-21.585 21.584c-.268.267-.414.622-.414.999 0 .379.146.734.414 1.001l.585.585c.535.537 1.469.533 2 0l21.585-21.584c.269-.268.415-.623.415-1z"/><path d="m60.998 12.242c0-2.469-.961-4.79-2.706-6.536-1.746-1.745-4.066-2.706-6.535-2.706h-3.342l12.584 12.584z"/><path d="m58.575 20.989-15.586-15.586-33.565 32.606 15.586 15.586zm-36.991 22.01-.585-.585c-.645-.645-.999-1.503-.999-2.414 0-.913.354-1.771.999-2.416l21.585-21.584c1.293-1.291 3.541-1.288 4.83 0l.585.586c.646.645 1 1.502 1 2.414s-.354 1.769-1 2.415l-21.585 21.584c-.646.645-1.503.999-2.414.999-.913 0-1.771-.354-2.416-.999z"/><path d="m4.12 56.291 4.526.647 2.938-2.939-2.585-2.586z"/><path d="m13.414 52.998h8.17l-11.585-11.585v8.171z"/><path d="m12.414 60.998h48.584v-1.999h-46.584z"/></g></svg>