<?xml version="1.0" encoding="iso-8859-1"?>
<!-- Generator: Adobe Illustrator 19.0.0, SVG Export Plug-In . SVG Version: 6.00 Build 0)  -->
<svg version="1.1" id="Capa_1" xmlns="http://www.w3.org/2000/svg" xmlns:xlink="http://www.w3.org/1999/xlink" x="0px" y="0px"
	 viewBox="0 0 512.001 512.001" style="enable-background:new 0 0 512.001 512.001;" xml:space="preserve">
<g>
	<g>
		<g>
			<path d="M466.817,312.648l5.221-5.221c6.563-6.563,10.177-15.29,10.177-24.571c0-9.281-3.614-18.008-10.177-24.571
				L229.321,15.566C217.654,3.899,201.57-1.626,185.195,0.418L74.076,14.265c-15.72,1.959-28.067,14.307-30.026,30.026
				l-13.847,111.12c-1.199,9.624,0.233,19.139,3.97,27.724l-3.97,31.859c-2.041,16.375,3.481,32.457,15.148,44.126l242.718,242.719
				c6.774,6.774,15.672,10.161,24.571,10.161c8.899,0,17.797-3.387,24.571-10.161l134.827-134.828
				c6.563-6.563,10.177-15.289,10.177-24.571s-3.614-18.008-10.177-24.571L466.817,312.648z M209.406,363.594l78.662,78.662
				c6.774,6.774,15.672,10.161,24.571,10.161c8.899,0,17.797-3.387,24.571-10.161l115.464-115.464l5.22,5.22
				c5.75,5.751,5.75,15.107,0,20.858L323.069,487.696c-5.75,5.75-15.107,5.751-20.858,0L59.493,244.978
				c-7.274-7.274-10.717-17.3-9.444-27.508l1.466-11.768l88.416,88.416c3.905,3.904,10.237,3.904,14.143,0
				c3.905-3.905,3.905-10.237,0-14.143l-94.581-94.581c-1.813-1.813-3.387-3.797-4.71-5.912c-3.987-6.371-5.69-13.932-4.735-21.596
				l9.84-78.959l4.008-32.159c0.825-6.625,6.028-11.828,12.653-12.653l111.12-13.848c10.205-1.271,20.234,2.169,27.508,9.444
				l242.718,242.718c5.75,5.75,5.75,15.107,0,20.857l-5.221,5.221l-14.142,14.142L323.069,428.111c-5.75,5.75-15.107,5.751-20.858,0
				L223.55,349.45c-3.906-3.906-10.237-3.905-14.143,0C205.501,353.355,205.501,359.688,209.406,363.594z"/>
			<path d="M135.612,57.698c-13.27-13.269-34.86-13.269-48.13,0c-4.464,4.464-7.419,9.872-8.88,15.586
				c-1.685,6.594-1.371,13.596,0.944,20.037c1.642,4.568,4.283,8.853,7.935,12.506c6.635,6.634,15.35,9.952,24.064,9.952
				c8.715,0,17.43-3.317,24.065-9.952c5.782-5.783,9.043-13.146,9.786-20.712c0.659-6.715-0.673-13.586-3.984-19.658
				C139.895,62.672,137.966,60.052,135.612,57.698z M124.219,87.756c-0.67,1.421-1.576,2.757-2.749,3.93
				c-5.471,5.472-14.373,5.471-19.844,0c-0.322-0.322-0.621-0.658-0.905-1.002c-4.545-5.507-4.245-13.694,0.904-18.843
				c0.636-0.636,1.323-1.191,2.041-1.679c2.37-1.611,5.124-2.424,7.882-2.424c1.618,0,3.232,0.293,4.772,0.847
				c1.88,0.677,3.647,1.752,5.15,3.256C125.768,76.139,126.674,82.549,124.219,87.756z"/>
			<path d="M190.214,317.204c-0.25-0.6-0.56-1.18-0.92-1.73c-0.36-0.54-0.78-1.06-1.24-1.52s-0.97-0.88-1.52-1.24
				c-0.54-0.36-1.12-0.67-1.73-0.92c-0.6-0.25-1.23-0.44-1.87-0.57c-1.28-0.26-2.61-0.26-3.9,0c-0.64,0.13-1.27,0.32-1.87,0.57
				c-0.61,0.25-1.19,0.56-1.73,0.92c-0.55,0.36-1.06,0.78-1.52,1.24c-0.46,0.46-0.88,0.98-1.24,1.52c-0.36,0.55-0.67,1.13-0.92,1.73
				c-0.25,0.6-0.44,1.23-0.57,1.87c-0.13,0.65-0.2,1.3-0.2,1.95c0,2.64,1.07,5.22,2.93,7.07c0.46,0.46,0.97,0.88,1.52,1.25
				c0.54,0.36,1.12,0.67,1.73,0.92c0.6,0.25,1.23,0.44,1.87,0.57s1.3,0.19,1.95,0.19c0.65,0,1.31-0.06,1.95-0.19
				s1.27-0.32,1.87-0.57c0.61-0.25,1.19-0.56,1.73-0.92c0.55-0.37,1.06-0.79,1.52-1.25c1.86-1.85,2.93-4.43,2.93-7.07
				c0-0.65-0.07-1.3-0.2-1.95C190.664,318.434,190.464,317.804,190.214,317.204z"/>
			<path d="M308.111,216.024c0-32.478-26.423-58.902-58.902-58.902c-32.479,0-58.902,26.423-58.902,58.902
				c0,32.478,26.422,58.902,58.902,58.902C281.688,274.925,308.111,248.502,308.111,216.024z M210.307,216.024
				c0-21.45,17.45-38.902,38.902-38.902c21.45,0,38.902,17.451,38.902,38.902c0,21.45-17.451,38.901-38.902,38.901
				S210.307,237.474,210.307,216.024z"/>
		</g>
	</g>
</g>
<g>
</g>
<g>
</g>
<g>
</g>
<g>
</g>
<g>
</g>
<g>
</g>
<g>
</g>
<g>
</g>
<g>
</g>
<g>
</g>
<g>
</g>
<g>
</g>
<g>
</g>
<g>
</g>
<g>
</g>
</svg>
