<?xml version="1.0" encoding="iso-8859-1"?>
<!-- Generator: Adobe Illustrator 16.0.0, SVG Export Plug-In . SVG Version: 6.00 Build 0)  -->
<!DOCTYPE svg PUBLIC "-//W3C//DTD SVG 1.1//EN" "http://www.w3.org/Graphics/SVG/1.1/DTD/svg11.dtd">
<svg version="1.1" id="Capa_1" xmlns="http://www.w3.org/2000/svg" xmlns:xlink="http://www.w3.org/1999/xlink" x="0px" y="0px"
	 width="31.674px" height="31.675px" viewBox="0 0 31.674 31.675" style="enable-background:new 0 0 31.674 31.675;"
	 xml:space="preserve">
<g>
	<g>
		<path d="M28.965,25.884V7.937L25.873,0l-3.669,7.803l-0.027,18.081h-0.012v5.791h6.809v-5.791H28.965z M27.706,30.406h-4.273
			v-2.145h4.272L27.706,30.406L27.706,30.406z M28.333,8.815l-1.72-1.935l-0.962,1.578l-1.1-1.578l-1.746,1.719V8.008l2.097-4.453
			h1.687l1.744,4.443V8.815z"/>
		<path d="M2.702,25.812h16.48V9.332H2.702V25.812z M3.99,10.622h13.901v13.901H3.99V10.622z"/>
		<polygon points="4.964,17.221 5.667,19.721 8.863,23.018 16.072,16.766 16.072,12.128 8.912,20.452 		"/>
	</g>
</g>
<g>
</g>
<g>
</g>
<g>
</g>
<g>
</g>
<g>
</g>
<g>
</g>
<g>
</g>
<g>
</g>
<g>
</g>
<g>
</g>
<g>
</g>
<g>
</g>
<g>
</g>
<g>
</g>
<g>
</g>
</svg>
