<?xml version="1.0" encoding="iso-8859-1"?>
<!-- Generator: Adobe Illustrator 19.0.0, SVG Export Plug-In . SVG Version: 6.00 Build 0)  -->
<svg version="1.1" id="Layer_1" xmlns="http://www.w3.org/2000/svg" xmlns:xlink="http://www.w3.org/1999/xlink" x="0px" y="0px"
	 viewBox="0 0 512 512" style="enable-background:new 0 0 512 512;" xml:space="preserve">
<g>
	<g>
		<path d="M510.939,414.98l-53.008-90.066c10.965-9.776,20.307-21.451,27.603-34.699c16.881-30.652,20.815-66.043,11.077-99.653
			c-9.739-33.61-31.982-61.418-62.634-78.298c-63.275-34.847-143.105-11.719-177.951,51.555
			c-8.649,15.706-13.723,32.43-15.501,49.234V77.791h208.251v24.477c0,4.238,3.434,7.672,7.672,7.672
			c4.238,0,7.672-3.434,7.672-7.672v-32.15c0-4.238-3.434-7.672-7.672-7.672H232.853c-0.268,0-0.532,0.014-0.793,0.041
			c-0.261-0.027-0.525-0.041-0.793-0.041h-186.8c-4.238,0-7.672,3.434-7.672,7.672c0,4.238,3.434,7.672,7.672,7.672h179.128v318.954
			H15.344V70.119c0-4.238-3.434-7.672-7.672-7.672C3.434,62.447,0,65.881,0,70.119v334.298c0,0.087,0.01,0.172,0.013,0.258
			C0.01,404.761,0,404.846,0,404.933v36.948c0,4.238,3.434,7.672,7.672,7.672h223.595c0.268,0,0.532-0.014,0.793-0.041
			c0.261,0.027,0.525,0.041,0.793,0.041h212.955c4.238,0,7.672-3.434,7.672-7.672V417.71l13.588,23.087
			c1.43,2.431,3.991,3.782,6.62,3.782c1.323,0,2.663-0.342,3.884-1.061l30.646-18.037
			C511.87,423.334,513.087,418.631,510.939,414.98z M223.595,434.21H15.344v-21.604h208.251V434.21z M269.467,171.223
			c21.047-38.219,60.68-59.846,101.508-59.846c18.849,0,37.956,4.612,55.601,14.329c55.864,30.766,76.283,101.244,45.519,157.108
			c-30.767,55.866-101.244,76.284-157.109,45.519C259.122,297.564,238.702,227.085,269.467,171.223z M438.136,434.21L438.136,434.21
			H240.525v-21.604h197.611V434.21z M240.525,396.744V240.515c4.332,41.233,28.069,79.784,67.057,101.256
			c19.631,10.811,41.205,16.311,63.011,16.311c12.243,0,24.558-1.733,36.643-5.234c2.292-0.664,4.554-1.391,6.791-2.171
			l27.114,46.067H240.525z M476.401,426.405l-48.065-81.666c6.097-2.965,11.92-6.391,17.435-10.231l48.052,81.644L476.401,426.405z"
			/>
	</g>
</g>
<g>
	<g>
		<path d="M466.658,199.238c-7.419-25.611-24.368-46.797-47.723-59.659c-48.211-26.552-109.041-8.928-135.593,39.284
			c-12.863,23.355-15.86,50.322-8.439,75.932c7.419,25.61,24.368,46.797,47.723,59.659c14.959,8.239,31.395,12.429,48.013,12.429
			c9.326,0,18.713-1.322,27.92-3.989c25.61-7.42,46.797-24.369,59.659-47.724C471.081,251.816,474.078,224.849,466.658,199.238z
			 M370.923,142.554c13.767,0,27.721,3.369,40.609,10.465c7.643,4.209,14.464,9.482,20.332,15.607H309.735
			C325.838,151.8,348.121,142.554,370.923,142.554z M394.289,308.157c-21.674,6.277-44.496,3.741-64.259-7.142
			c-2.229-1.228-4.365-2.556-6.438-3.95h94.444C410.837,301.909,402.862,305.674,394.289,308.157z M444.776,267.768
			c-2.761,5.016-5.98,9.678-9.596,13.952H306.426c-10.093-11.9-16.6-26.309-19.023-41.47c0.633,0.169,1.295,0.268,1.982,0.268
			h162.248c0.933,0,1.822-0.175,2.648-0.48C452.78,249.638,449.603,259.004,444.776,267.768z M451.634,225.174H289.386
			c-1.084,0-2.114,0.227-3.049,0.633c0.17-13.42,3.531-26.985,10.445-39.541c0.427-0.775,0.868-1.538,1.317-2.294h143.741
			c0.534,0,1.055-0.055,1.558-0.159c3.618,6.104,6.496,12.701,8.522,19.696c2.157,7.446,3.249,15.028,3.344,22.577
			C454.183,225.505,452.947,225.174,451.634,225.174z"/>
	</g>
</g>
<g>
	<g>
		<path d="M179.045,115.733H57.523c-4.238,0-7.672,3.434-7.672,7.672c0,4.238,3.435,7.672,7.672,7.672h121.522
			c4.238,0,7.672-3.434,7.672-7.672C186.717,119.167,183.283,115.733,179.045,115.733z"/>
	</g>
</g>
<g>
	<g>
		<path d="M179.045,162.655H57.523c-4.238,0-7.672,3.434-7.672,7.672S53.286,178,57.523,178h121.522
			c4.238,0,7.672-3.434,7.672-7.672S183.283,162.655,179.045,162.655z"/>
	</g>
</g>
<g>
	<g>
		<path d="M179.045,209.576H57.523c-4.238,0-7.672,3.434-7.672,7.672c0,4.238,3.435,7.672,7.672,7.672h121.522
			c4.238,0,7.672-3.434,7.672-7.672C186.717,213.011,183.283,209.576,179.045,209.576z"/>
	</g>
</g>
<g>
	<g>
		<path d="M179.045,256.497H57.523c-4.238,0-7.672,3.434-7.672,7.672s3.435,7.672,7.672,7.672h121.522
			c4.238,0,7.672-3.434,7.672-7.672S183.283,256.497,179.045,256.497z"/>
	</g>
</g>
<g>
	<g>
		<path d="M179.045,303.418H57.523c-4.238,0-7.672,3.434-7.672,7.672c0,4.238,3.435,7.672,7.672,7.672h121.522
			c4.238,0,7.672-3.434,7.672-7.672C186.717,306.852,183.283,303.418,179.045,303.418z"/>
	</g>
</g>
<g>
</g>
<g>
</g>
<g>
</g>
<g>
</g>
<g>
</g>
<g>
</g>
<g>
</g>
<g>
</g>
<g>
</g>
<g>
</g>
<g>
</g>
<g>
</g>
<g>
</g>
<g>
</g>
<g>
</g>
</svg>
