<?xml version="1.0"?>
<svg xmlns="http://www.w3.org/2000/svg" id="Outline" viewBox="0 0 512 512" width="512" height="512"><path d="M397.657,18.343A8,8,0,0,0,392,16H56A40.045,40.045,0,0,0,16,56V456a40.045,40.045,0,0,0,40,40H456a40.045,40.045,0,0,0,40-40V120a8,8,0,0,0-2.343-5.657ZM400,43.313,468.687,112H424a24.028,24.028,0,0,1-24-24ZM72.022,480H56a24.028,24.028,0,0,1-24-24V56A24.028,24.028,0,0,1,56,32H72.022A39.788,39.788,0,0,0,64,56V456A39.788,39.788,0,0,0,72.022,480Zm48,0H104a24.028,24.028,0,0,1-24-24V56a24.028,24.028,0,0,1,24-24h16.022A39.788,39.788,0,0,0,112,56V456A39.788,39.788,0,0,0,120.022,480ZM480,456a24.028,24.028,0,0,1-24,24H152a24.028,24.028,0,0,1-24-24V56a24.028,24.028,0,0,1,24-24H384V88a40.045,40.045,0,0,0,40,40h56Z"/><path d="M240,168a8,8,0,0,0,8,8H440a8,8,0,0,0,0-16H248A8,8,0,0,0,240,168Z"/><path d="M168,224H328a8,8,0,0,0,0-16H168a8,8,0,0,0,0,16Z"/><path d="M440,256H296a8,8,0,0,0,0,16H440a8,8,0,0,0,0-16Z"/><path d="M168,320H360a8,8,0,0,0,0-16H168a8,8,0,0,0,0,16Z"/><path d="M168,176h48a8,8,0,0,0,0-16H168a8,8,0,0,0,0,16Z"/><path d="M440,208H360a8,8,0,0,0,0,16h80a8,8,0,0,0,0-16Z"/><path d="M168,272h96a8,8,0,0,0,0-16H168a8,8,0,0,0,0,16Z"/><path d="M440,304H392a8,8,0,0,0,0,16h48a8,8,0,0,0,0-16Z"/><path d="M376,400H296a8,8,0,0,0,0,16h80a8,8,0,0,0,0-16Z"/><path d="M264,400H168a8,8,0,0,0,0,16h96a8,8,0,0,0,0-16Z"/><path d="M168,368h64a8,8,0,0,0,0-16H168a8,8,0,0,0,0,16Z"/><path d="M168,128h96a8,8,0,0,0,0-16H168a8,8,0,0,0,0,16Z"/><path d="M440,352H376a8,8,0,0,0,0,16h64a8,8,0,0,0,0-16Z"/><path d="M440,400H408a8,8,0,0,0,0,16h32a8,8,0,0,0,0-16Z"/><path d="M264,352a8,8,0,0,0,0,16h80a8,8,0,0,0,0-16Z"/></svg>
